<svg viewBox="0 0 512 512" xmlns="http://www.w3.org/2000/svg"><path d="m491.844 22.533-83.42 14.865-211.852 211.852c3.262 4.815 5.37 10.72 5.37 16.932 0 5.863-1.71 11.35-4.643 15.996a52.936 52.936 0 0 0 -16.027-2.477c-15.724 0-29.904 6.89-39.69 17.796l-9.112-9.113 17.237-17.237a545.915 545.915 0 0 1 -13.19-17.6l-19.443 19.44-13.215-13.215 21.828-21.827a548.134 548.134 0 0 1 -12.792-20.068l-40.802 40.803 58.314 58.314a52.94 52.94 0 0 0 -2.49 16.063 52.86 52.86 0 0 0 4.592 21.564l-72.14 72.14-14.56-14.56-24.796 24.799 14.558 14.56-8.607 8.608 27.246 27.246 8.606-8.61 14.56 14.56 24.798-24.8-14.557-14.556 72.158-72.16a52.885 52.885 0 0 0 21.498 4.562 52.94 52.94 0 0 0 16.063-2.49l58.363 58.363 40.801-40.803a548.745 548.745 0 0 1 -20.068-12.793l-21.83 21.83-13.212-13.217 19.442-19.44a550.258 550.258 0 0 1 -17.603-13.194l-17.238 17.238-9.16-9.16c10.905-9.785 17.795-23.965 17.795-39.69 0-5.346-.806-10.51-2.285-15.39 4.703-3.04 10.288-4.817 16.265-4.816 6.21 0 11.776 1.77 16.52 4.955l211.854-211.853zm-66.227 53.012 13.215 13.215-191.684 191.68-13.214-13.213zm-244.344 222.845c19.257 0 34.665 15.41 34.665 34.665 0 19.256-15.408 34.666-34.665 34.666-19.256 0-34.666-15.41-34.666-34.665s15.41-34.666 34.666-34.666z" fill="#fff"/></svg>